<svg width="176" height="21" viewBox="0 0 176 21" fill="none" xmlns="http://www.w3.org/2000/svg">
<path fill-rule="evenodd" clip-rule="evenodd" d="M76.5417 20.9739L66.8557 8.99187V20.9739H62.9787V3.53487H67.1897L76.8897 15.5659V3.53487H80.7457V20.9739H76.5417ZM103.817 12.2549C103.841 13.5434 103.611 14.824 103.138 16.0229C102.712 17.073 102.046 18.0087 101.194 18.7549C100.298 19.5148 99.2533 20.0795 98.1267 20.4129C95.4755 21.161 92.6689 21.161 90.0177 20.4129C88.8847 20.08 87.8331 19.5154 86.9297 18.7549C86.0705 18.01 85.3976 17.0744 84.9647 16.0229C84.0464 13.5948 84.0464 10.9149 84.9647 8.48686C85.3971 7.43508 86.0701 6.49936 86.9297 5.75487C87.8332 4.99448 88.8847 4.4299 90.0177 4.09686C92.6689 3.34871 95.4755 3.34871 98.1267 4.09686C99.2533 4.43018 100.298 4.99489 101.194 5.75487C102.047 6.50066 102.713 7.43648 103.138 8.48686C103.611 9.68566 103.842 10.9663 103.817 12.2549ZM99.8987 12.2549C99.8977 11.6288 99.8115 11.0058 99.6427 10.4029C99.4712 9.78747 99.1597 9.22003 98.7327 8.74486C98.2397 8.21691 97.6316 7.80971 96.9557 7.55487C96.0351 7.22144 95.0594 7.06601 94.0807 7.09686C93.3889 7.08789 92.6984 7.15836 92.0227 7.30687C91.4855 7.42673 90.9685 7.62377 90.4877 7.89186C90.0799 8.12157 89.7126 8.41686 89.4007 8.76587C89.116 9.08758 88.8801 9.44945 88.7007 9.83986C88.5265 10.2204 88.4018 10.6216 88.3297 11.0339C88.2575 11.4379 88.221 11.8474 88.2207 12.2579C88.2208 12.6742 88.2573 13.0898 88.3297 13.4999C88.4012 13.9142 88.5259 14.3175 88.7007 14.6999C88.8792 15.0889 89.1152 15.449 89.4007 15.7679C89.7129 16.1133 90.0802 16.4046 90.4877 16.6299C90.9696 16.8941 91.4864 17.089 92.0227 17.2089C92.6983 17.3582 93.3889 17.429 94.0807 17.4199C95.0599 17.4489 96.0356 17.2911 96.9557 16.9549C97.6336 16.6997 98.2432 16.291 98.7367 15.7609C99.1637 15.2857 99.4752 14.7183 99.6467 14.1029C99.8138 13.5011 99.8986 12.8794 99.8987 12.2549ZM121.655 20.0449C121.138 20.2398 120.612 20.4068 120.078 20.5449C119.512 20.689 118.937 20.7956 118.358 20.8639C117.714 20.9389 117.067 20.9753 116.42 20.9729C115.055 20.986 113.695 20.8031 112.382 20.4299C111.223 20.1049 110.142 19.5487 109.204 18.7949C108.31 18.0599 107.6 17.1265 107.13 16.0689C106.139 13.621 106.139 10.8837 107.13 8.43587C107.6 7.37892 108.31 6.44598 109.204 5.71086C110.142 4.95734 111.223 4.40151 112.382 4.07686C113.695 3.70363 115.055 3.52077 116.42 3.53386C117.067 3.5319 117.714 3.5683 118.358 3.64287C118.937 3.71146 119.512 3.81836 120.078 3.96286C120.612 4.10058 121.139 4.2675 121.655 4.46286C122.164 4.65553 122.669 4.87253 123.17 5.11386V9.14186C122.77 8.89319 122.352 8.6462 121.917 8.40086C121.45 8.14273 120.964 7.92074 120.464 7.73686C119.895 7.52995 119.312 7.36845 118.718 7.25386C118.011 7.12357 117.294 7.0613 116.576 7.06787C115.547 7.03911 114.52 7.18587 113.541 7.50186C112.82 7.73952 112.161 8.13476 111.612 8.65886C111.144 9.12096 110.796 9.69004 110.598 10.3169C110.402 10.9435 110.304 11.5964 110.306 12.2529C110.305 12.6919 110.347 13.1299 110.431 13.5609C110.512 13.9845 110.653 14.3946 110.849 14.7789C111.268 15.6032 111.948 16.2664 112.782 16.6659C113.302 16.9172 113.851 17.1016 114.418 17.2149C115.128 17.3562 115.851 17.4232 116.575 17.4149C117.293 17.4214 118.009 17.3629 118.717 17.2399C119.311 17.134 119.895 16.9788 120.463 16.7759C120.964 16.596 121.45 16.3763 121.916 16.1189C122.354 15.8735 122.771 15.6222 123.169 15.3649V19.3929C122.669 19.6342 122.164 19.8515 121.656 20.0449H121.655ZM145.367 12.2549C145.392 13.5435 145.16 14.8242 144.687 16.0229C144.262 17.0732 143.596 18.009 142.743 18.7549C141.847 19.5152 140.802 20.0799 139.676 20.4129C137.025 21.161 134.219 21.161 131.568 20.4129C130.435 20.08 129.383 19.5154 128.48 18.7549C127.62 18.0101 126.947 17.0744 126.515 16.0229C125.595 13.595 125.595 10.9147 126.515 8.48686C126.947 7.43504 127.62 6.49931 128.48 5.75487C129.383 4.99433 130.435 4.42973 131.568 4.09686C134.219 3.34874 137.025 3.34874 139.676 4.09686C140.802 4.4298 141.847 4.99455 142.743 5.75487C143.596 6.50044 144.262 7.43631 144.687 8.48686C145.16 9.68555 145.391 10.9663 145.366 12.2549H145.367ZM141.449 12.2549C141.448 11.6288 141.362 11.0058 141.193 10.4029C141.022 9.78739 140.711 9.21988 140.284 8.74486C139.789 8.21469 139.179 7.80604 138.501 7.55086C137.581 7.21744 136.606 7.06202 135.628 7.09286C134.936 7.08379 134.245 7.15426 133.569 7.30287C133.031 7.423 132.514 7.62002 132.033 7.88786C131.625 8.11801 131.258 8.41324 130.946 8.76187C130.661 9.08378 130.425 9.44561 130.246 9.83586C130.072 10.2166 129.947 10.6178 129.874 11.0299C129.802 11.4339 129.765 11.8435 129.765 12.2539C129.765 12.6702 129.802 13.0858 129.874 13.4959C129.946 13.91 130.071 14.3133 130.246 14.6959C130.424 15.0848 130.66 15.4448 130.946 15.7639C131.258 16.1089 131.626 16.4001 132.033 16.6259C132.515 16.8899 133.032 17.0848 133.569 17.2049C134.245 17.3543 134.936 17.4251 135.628 17.4159C136.606 17.4471 137.581 17.2917 138.501 16.9579C139.179 16.7029 139.79 16.2942 140.284 15.7639C140.711 15.2888 141.022 14.7213 141.193 14.1059C141.361 13.5033 141.447 12.8806 141.448 12.2549H141.449ZM148.9 20.9739V3.53487H152.777V20.9739H148.9ZM170.835 20.9739L161.147 8.99187V20.9739H157.271V3.53487H161.481L171.181 15.5659V3.53487H175.037V20.9739H170.835ZM58.3907 17.1919C57.9985 17.969 57.428 18.6424 56.7257 19.1569C55.8903 19.7637 54.9518 20.214 53.9557 20.4859C51.406 21.1372 48.7334 21.1372 46.1837 20.4859C45.1833 20.2157 44.2405 19.7653 43.4017 19.1569C42.6992 18.6424 42.1283 17.9691 41.7357 17.1919C41.3668 16.4459 41.1771 15.6241 41.1817 14.7919V3.53487H45.2087V13.1499C45.2055 13.6934 45.2696 14.2352 45.3997 14.7629C45.5215 15.26 45.7687 15.7175 46.1177 16.0919C46.5307 16.5075 47.0387 16.8164 47.5977 16.9919C48.3991 17.2385 49.2356 17.3514 50.0737 17.3259C50.9065 17.3513 51.7378 17.2384 52.5337 16.9919C53.091 16.8156 53.5971 16.5068 54.0087 16.0919C54.3574 15.7181 54.6031 15.2601 54.7217 14.7629C54.8477 14.2345 54.9098 13.693 54.9067 13.1499V3.53487H58.9447V14.7939C58.9484 15.6256 58.758 16.4466 58.3887 17.1919H58.3907Z" fill="#3DBFB8"/>
<path fill-rule="evenodd" clip-rule="evenodd" d="M33.7982 12.8888H31.8742C31.4581 12.8933 31.0608 13.0626 30.7693 13.3595C30.4779 13.6564 30.316 14.0568 30.3192 14.4728C30.33 14.9304 30.172 15.376 29.8752 15.7244C29.5784 16.0728 29.1637 16.2998 28.7102 16.3618H21.5202C21.2028 18.0189 20.3379 19.5213 19.0642 20.6278C19.6769 20.8558 20.3254 20.973 20.9792 20.9738H28.7102C30.4389 20.9464 32.0912 20.257 33.3268 19.0478C34.5625 17.8386 35.2874 16.2015 35.3522 14.4738C35.3554 14.0578 35.1935 13.6574 34.902 13.3605C34.6105 13.0636 34.2132 12.8943 33.7972 12.8898L33.7982 12.8888ZM28.8782 0.989821H21.4712C20.6674 0.985843 19.8709 1.14128 19.1276 1.44711C18.3843 1.75295 17.709 2.20311 17.1408 2.77159C16.5726 3.34007 16.1228 4.01557 15.8173 4.75902C15.5118 5.50246 15.3568 6.29909 15.3612 7.10283V14.7858C15.3678 15.1828 15.2222 15.5672 14.9542 15.8602C14.6862 16.1531 14.3162 16.3322 13.9202 16.3608H6.05218C5.66672 16.3569 5.29856 16.2002 5.02843 15.9252C4.7583 15.6502 4.60825 15.2793 4.61118 14.8938V6.70982C4.61065 6.4912 4.68421 6.27884 4.81988 6.1074C4.95554 5.93597 5.14529 5.81556 5.35818 5.76582C5.67817 5.69895 5.9663 5.5262 6.17604 5.27545C6.38578 5.0247 6.50491 4.71059 6.51418 4.38382V2.43182C6.5159 2.24789 6.48135 2.06541 6.41251 1.89483C6.34367 1.72426 6.24189 1.56892 6.11299 1.4377C5.98409 1.30647 5.83059 1.20194 5.66127 1.13006C5.49194 1.05819 5.31012 1.0204 5.12618 1.01883C5.07205 1.01845 5.01794 1.02146 4.96418 1.02783C3.58484 1.20349 2.3178 1.87883 1.40297 2.92598C0.488141 3.97313 -0.0109579 5.31939 0.000182553 6.70982V14.8938C-0.00343209 15.6956 0.152342 16.4902 0.458454 17.2312C0.764565 17.9723 1.21491 18.6452 1.78331 19.2107C2.35172 19.7762 3.02685 20.2231 3.76948 20.5254C4.5121 20.8278 5.30741 20.9795 6.10918 20.9718H13.8982C15.5406 20.9291 17.1 20.2407 18.2383 19.056C19.3766 17.8713 20.0021 16.2856 19.9792 14.6428V7.10283C19.9863 6.70911 20.1451 6.33333 20.4225 6.05386C20.6999 5.77439 21.0745 5.61281 21.4682 5.60283H28.8752C29.2639 5.61458 29.6325 5.77823 29.9019 6.05867C30.1713 6.3391 30.32 6.71397 30.3162 7.10283C30.3145 7.28676 30.349 7.46924 30.4179 7.63981C30.4867 7.81039 30.5885 7.96573 30.7174 8.09695C30.8463 8.22818 30.9998 8.33271 31.1691 8.40458C31.3384 8.47646 31.5202 8.51425 31.7042 8.51582H33.9622C34.1461 8.51425 34.3279 8.47646 34.4973 8.40458C34.6666 8.33271 34.8201 8.22818 34.949 8.09695C35.0779 7.96573 35.1797 7.81039 35.2485 7.63981C35.3173 7.46924 35.3519 7.28676 35.3502 7.10283C35.2756 5.44315 34.5585 3.87754 33.3505 2.73695C32.1426 1.59637 30.5384 0.970201 28.8772 0.990828L28.8782 0.989821Z" fill="#3DBFB8"/>
</svg>
